<svg width="16" height="16" viewBox="0 0 16 16" fill="none" xmlns="http://www.w3.org/2000/svg">
<g clip-path="url(#clip0_1902_6894)">
<path fill-rule="evenodd" clip-rule="evenodd" d="M2.40743 4.0002C2.40744 3.53691 2.54196 3.08352 2.79476 2.69476C3.04755 2.306 3.40781 1.99849 3.83206 1.80936C4.2563 1.62022 4.72639 1.55754 5.18557 1.62888C5.64476 1.70023 6.07342 1.90254 6.41981 2.2114C6.81816 1.85549 7.32406 1.64197 7.85766 1.60455C8.39127 1.56713 8.92217 1.70795 9.36657 2.00477C9.81097 2.30159 10.1436 2.73751 10.3118 3.24371C10.4801 3.74991 10.4744 4.29756 10.2958 4.8002H11.2347C11.6603 4.8002 12.0686 4.96878 12.3695 5.26883C12.6705 5.56889 12.8396 5.97586 12.8396 6.4002C12.8396 6.82455 12.6705 7.23152 12.3695 7.53158C12.0686 7.83163 11.6603 8.0002 11.2347 8.0002H7.22229V7.2002C7.22229 6.98803 7.13774 6.78455 6.98725 6.63452C6.83676 6.48449 6.63264 6.4002 6.41981 6.4002C6.20698 6.4002 6.00287 6.48449 5.85238 6.63452C5.70188 6.78455 5.61734 6.98803 5.61734 7.2002V8.0002H1.60495C1.17929 8.0002 0.771067 7.83163 0.47008 7.53158C0.169093 7.23152 0 6.82455 0 6.4002C0 5.97586 0.169093 5.56889 0.47008 5.26883C0.771067 4.96878 1.17929 4.8002 1.60495 4.8002H2.54385C2.45558 4.5498 2.40743 4.2802 2.40743 4.0002ZM5.61734 4.8002V4.0002C5.61734 3.84198 5.57027 3.68731 5.4821 3.55575C5.39392 3.42419 5.26859 3.32165 5.12196 3.2611C4.97532 3.20055 4.81397 3.18471 4.65831 3.21558C4.50264 3.24644 4.35965 3.32264 4.24742 3.43452C4.1352 3.5464 4.05877 3.68895 4.0278 3.84413C3.99684 3.99932 4.01273 4.16017 4.07347 4.30635C4.13421 4.45253 4.23706 4.57747 4.36903 4.66538C4.501 4.75329 4.65615 4.8002 4.81486 4.8002H5.61734ZM8.02477 4.8002C8.18348 4.8002 8.33863 4.75329 8.4706 4.66538C8.60257 4.57747 8.70542 4.45253 8.76616 4.30635C8.8269 4.16017 8.84279 3.99932 8.81183 3.84413C8.78086 3.68895 8.70443 3.5464 8.5922 3.43452C8.47998 3.32264 8.33699 3.24644 8.18132 3.21558C8.02566 3.18471 7.86431 3.20055 7.71767 3.2611C7.57104 3.32165 7.44571 3.42419 7.35753 3.55575C7.26936 3.68731 7.22229 3.84198 7.22229 4.0002V4.8002H8.02477Z" fill="white"/>
<path d="M5.61723 8.80078H0.802368V12.8008C0.802368 13.2251 0.971461 13.6321 1.27245 13.9321C1.57344 14.2322 1.98166 14.4008 2.40732 14.4008H5.61723V8.80078ZM7.22218 14.4008H10.4321C10.8578 14.4008 11.266 14.2322 11.567 13.9321C11.868 13.6321 12.037 13.2251 12.037 12.8008V8.80078H7.22218V14.4008Z" fill="white"/>
<path d="M12.3884 14.9006C14.6851 14.9006 16.5497 13.044 16.5497 10.7506C16.5497 8.45715 14.6851 6.60059 12.3884 6.60059C10.0916 6.60059 8.22705 8.45715 8.22705 10.7506C8.22705 13.044 10.0916 14.9006 12.3884 14.9006Z" fill="white" stroke="#001219"/>
<path fill-rule="evenodd" clip-rule="evenodd" d="M12.4382 8.80078C12.5446 8.80078 12.6467 8.84292 12.7219 8.91794C12.7972 8.99295 12.8394 9.09469 12.8394 9.20078V10.4008H14.0432C14.1496 10.4008 14.2516 10.4429 14.3269 10.5179C14.4021 10.593 14.4444 10.6947 14.4444 10.8008C14.4444 10.9069 14.4021 11.0086 14.3269 11.0836C14.2516 11.1586 14.1496 11.2008 14.0432 11.2008H12.8394V12.4008C12.8394 12.5069 12.7972 12.6086 12.7219 12.6836C12.6467 12.7586 12.5446 12.8008 12.4382 12.8008C12.3318 12.8008 12.2297 12.7586 12.1545 12.6836C12.0792 12.6086 12.037 12.5069 12.037 12.4008V11.2008H10.8332C10.7268 11.2008 10.6248 11.1586 10.5495 11.0836C10.4743 11.0086 10.432 10.9069 10.432 10.8008C10.432 10.6947 10.4743 10.593 10.5495 10.5179C10.6248 10.4429 10.7268 10.4008 10.8332 10.4008H12.037V9.20078C12.037 9.09469 12.0792 8.99295 12.1545 8.91794C12.2297 8.84292 12.3318 8.80078 12.4382 8.80078V8.80078Z" fill="#001219"/>
</g>
<defs>
<clipPath id="clip0_1902_6894">
<rect width="16" height="16" fill="white"/>
</clipPath>
</defs>
</svg>
