<svg width="32" height="33" viewBox="0 0 32 33" fill="none" xmlns="http://www.w3.org/2000/svg">
<path fill-rule="evenodd" clip-rule="evenodd" d="M16 32.5C20.2435 32.5 24.3131 30.8143 27.3137 27.8137C30.3143 24.8131 32 20.7435 32 16.5C32 12.2565 30.3143 8.18687 27.3137 5.18629C24.3131 2.18571 20.2435 0.5 16 0.5C11.7565 0.5 7.68687 2.18571 4.68629 5.18629C1.68571 8.18687 0 12.2565 0 16.5C0 20.7435 1.68571 24.8131 4.68629 27.8137C7.68687 30.8143 11.7565 32.5 16 32.5V32.5ZM13.414 11.086C13.0368 10.7217 12.5316 10.5201 12.0072 10.5247C11.4828 10.5292 10.9812 10.7395 10.6104 11.1104C10.2395 11.4812 10.0292 11.9828 10.0247 12.5072C10.0201 13.0316 10.2217 13.5368 10.586 13.914L13.172 16.5L10.586 19.086C10.395 19.2705 10.2426 19.4912 10.1378 19.7352C10.033 19.9792 9.97781 20.2416 9.9755 20.5072C9.97319 20.7728 10.0238 21.0361 10.1244 21.2819C10.2249 21.5277 10.3734 21.751 10.5612 21.9388C10.749 22.1266 10.9723 22.2751 11.2181 22.3756C11.4639 22.4762 11.7272 22.5268 11.9928 22.5245C12.2584 22.5222 12.5208 22.467 12.7648 22.3622C13.0088 22.2574 13.2295 22.105 13.414 21.914L16 19.328L18.586 21.914C18.9632 22.2783 19.4684 22.4799 19.9928 22.4753C20.5172 22.4708 21.0188 22.2605 21.3896 21.8896C21.7605 21.5188 21.9708 21.0172 21.9753 20.4928C21.9799 19.9684 21.7783 19.4632 21.414 19.086L18.828 16.5L21.414 13.914C21.7783 13.5368 21.9799 13.0316 21.9753 12.5072C21.9708 11.9828 21.7605 11.4812 21.3896 11.1104C21.0188 10.7395 20.5172 10.5292 19.9928 10.5247C19.4684 10.5201 18.9632 10.7217 18.586 11.086L16 13.672L13.414 11.086Z" fill="#BB3E03"/>
</svg>
