<svg width="30" height="30" viewBox="0 0 30 30" fill="none" xmlns="http://www.w3.org/2000/svg">
<path fill-rule="evenodd" clip-rule="evenodd" d="M30 15C30 18.9782 28.4196 22.7936 25.6066 25.6066C22.7936 28.4196 18.9782 30 15 30C11.0218 30 7.20644 28.4196 4.3934 25.6066C1.58035 22.7936 0 18.9782 0 15C0 11.0218 1.58035 7.20644 4.3934 4.3934C7.20644 1.58035 11.0218 0 15 0C18.9782 0 22.7936 1.58035 25.6066 4.3934C28.4196 7.20644 30 11.0218 30 15ZM16.875 7.5C16.875 7.99728 16.6775 8.47419 16.3258 8.82583C15.9742 9.17746 15.4973 9.375 15 9.375C14.5027 9.375 14.0258 9.17746 13.6742 8.82583C13.3225 8.47419 13.125 7.99728 13.125 7.5C13.125 7.00272 13.3225 6.52581 13.6742 6.17418C14.0258 5.82254 14.5027 5.625 15 5.625C15.4973 5.625 15.9742 5.82254 16.3258 6.17418C16.6775 6.52581 16.875 7.00272 16.875 7.5ZM13.125 13.125C12.6277 13.125 12.1508 13.3225 11.7992 13.6742C11.4475 14.0258 11.25 14.5027 11.25 15C11.25 15.4973 11.4475 15.9742 11.7992 16.3258C12.1508 16.6775 12.6277 16.875 13.125 16.875V22.5C13.125 22.9973 13.3225 23.4742 13.6742 23.8258C14.0258 24.1775 14.5027 24.375 15 24.375H16.875C17.3723 24.375 17.8492 24.1775 18.2008 23.8258C18.5525 23.4742 18.75 22.9973 18.75 22.5C18.75 22.0027 18.5525 21.5258 18.2008 21.1742C17.8492 20.8225 17.3723 20.625 16.875 20.625V15C16.875 14.5027 16.6775 14.0258 16.3258 13.6742C15.9742 13.3225 15.4973 13.125 15 13.125H13.125Z" fill="#2B4BF2"/>
</svg>
