<svg width="32" height="33" viewBox="0 0 32 33" fill="none" xmlns="http://www.w3.org/2000/svg">
<path fill-rule="evenodd" clip-rule="evenodd" d="M16 32.5C20.2435 32.5 24.3131 30.8143 27.3137 27.8137C30.3143 24.8131 32 20.7435 32 16.5C32 12.2565 30.3143 8.18687 27.3137 5.18629C24.3131 2.18571 20.2435 0.5 16 0.5C11.7565 0.5 7.68687 2.18571 4.68629 5.18629C1.68571 8.18687 0 12.2565 0 16.5C0 20.7435 1.68571 24.8131 4.68629 27.8137C7.68687 30.8143 11.7565 32.5 16 32.5ZM23.414 13.914C23.7783 13.5368 23.9799 13.0316 23.9753 12.5072C23.9708 11.9828 23.7605 11.4812 23.3896 11.1104C23.0188 10.7395 22.5172 10.5292 21.9928 10.5247C21.4684 10.5201 20.9632 10.7217 20.586 11.086L14 17.672L11.414 15.086C11.0368 14.7217 10.5316 14.5201 10.0072 14.5247C9.4828 14.5292 8.98118 14.7395 8.61036 15.1104C8.23955 15.4812 8.02921 15.9828 8.02465 16.5072C8.02009 17.0316 8.22168 17.5368 8.586 17.914L12.586 21.914C12.9611 22.2889 13.4697 22.4996 14 22.4996C14.5303 22.4996 15.0389 22.2889 15.414 21.914L23.414 13.914Z" fill="#51DC6B"/>
</svg>
