<svg width="15" height="15" viewBox="0 0 15 15" fill="none" xmlns="http://www.w3.org/2000/svg">
<path d="M10.586 1.58592C10.7705 1.3949 10.9912 1.24253 11.2352 1.13772C11.4792 1.0329 11.7416 0.977725 12.0072 0.975417C12.2728 0.97311 12.5361 1.02371 12.7819 1.12427C13.0277 1.22484 13.251 1.37334 13.4388 1.56113C13.6266 1.74891 13.7751 1.97222 13.8756 2.21801C13.9762 2.4638 14.0268 2.72716 14.0245 2.99272C14.0222 3.25828 13.967 3.52072 13.8622 3.76473C13.7574 4.00874 13.605 4.22942 13.414 4.41392L12.621 5.20692L9.793 2.37892L10.586 1.58592ZM8.379 3.79292L0 12.1719V14.9999H2.828L11.208 6.62092L8.378 3.79292H8.379Z" fill="white"/>
</svg>
