<svg width="21" height="20" viewBox="0 0 21 20" fill="none" xmlns="http://www.w3.org/2000/svg">
<g clip-path="url(#clip0_1112_958)">
<path d="M13.186 9.5L4.88367 8V19.0835C4.88367 19.5897 5.28445 20 5.77885 20H20.1048C20.5992 20 20.9999 19.5897 20.9999 19.0835V15L13.186 9.5Z" fill="#185C37"/>
<path d="M13.186 0H5.77885C5.28445 0 4.88367 0.410329 4.88367 0.916498V5L13.186 10L17.5813 11.5L20.9999 10V5L13.186 0Z" fill="#21A366"/>
<path d="M4.88367 5H13.186V10H4.88367V5Z" fill="#107C41"/>
<path opacity="0.1" d="M10.8257 4H4.88367V16.5H10.8257C11.3194 16.4984 11.7193 16.089 11.7209 15.5835V4.9165C11.7193 4.41101 11.3194 4.00164 10.8257 4Z" fill="black"/>
<path opacity="0.2" d="M10.3373 4.5H4.88367V17H10.3373C10.831 16.9984 11.2309 16.589 11.2325 16.0835V5.4165C11.2309 4.91101 10.831 4.50164 10.3373 4.5Z" fill="black"/>
<path opacity="0.2" d="M10.3373 4.5H4.88367V16H10.3373C10.831 15.9984 11.2309 15.589 11.2325 15.0835V5.4165C11.2309 4.91101 10.831 4.50164 10.3373 4.5Z" fill="black"/>
<path opacity="0.2" d="M9.84895 4.5H4.88367V16H9.84895C10.3427 15.9984 10.7425 15.589 10.7441 15.0835V5.4165C10.7425 4.91101 10.3427 4.50164 9.84895 4.5Z" fill="black"/>
<path d="M0.895184 4.5H9.84899C10.3434 4.5 10.7442 4.91033 10.7442 5.4165V14.5835C10.7442 15.0897 10.3434 15.5 9.84899 15.5H0.895184C0.400786 15.5 0 15.0897 0 14.5835V5.4165C0 4.91033 0.400786 4.5 0.895184 4.5Z" fill="url(#paint0_linear_1112_958)"/>
<path d="M2.77246 12.979L4.65562 9.99151L2.93021 7.02051H4.31816L5.25974 8.92051C5.34667 9.10101 5.40625 9.23501 5.43849 9.3235H5.45069C5.51156 9.18164 5.57671 9.04174 5.64604 8.904L6.65258 7.02151H7.92674L6.15736 9.97502L7.97168 12.979H6.61595L5.52835 10.8935C5.47712 10.8048 5.43365 10.7116 5.39844 10.615H5.38233C5.35047 10.7096 5.3082 10.8002 5.25633 10.885L4.13649 12.979H2.77246Z" fill="white"/>
<path d="M20.1048 0H13.186V5H21V0.916498C21 0.410329 20.5992 0 20.1048 0Z" fill="#33C481"/>
<path d="M13.186 10H21V15H13.186V10Z" fill="#107C41"/>
</g>
<defs>
<linearGradient id="paint0_linear_1112_958" x1="1.86648" y1="3.78387" x2="9.12807" y2="16.0681" gradientUnits="userSpaceOnUse">
<stop stop-color="#18884F"/>
<stop offset="0.5" stop-color="#117E43"/>
<stop offset="1" stop-color="#0B6631"/>
</linearGradient>
<clipPath id="clip0_1112_958">
<rect width="21" height="20" fill="white"/>
</clipPath>
</defs>
</svg>
