<svg width="12" height="12" viewBox="0 0 12 12" fill="none" xmlns="http://www.w3.org/2000/svg">
<path fill-rule="evenodd" clip-rule="evenodd" d="M0 0.857143C0 0.629814 0.0903058 0.411797 0.251051 0.251051C0.411797 0.0903058 0.629814 0 0.857143 0H4.28571C4.51304 0 4.73106 0.0903058 4.89181 0.251051C5.05255 0.411797 5.14286 0.629814 5.14286 0.857143C5.14286 1.08447 5.05255 1.30249 4.89181 1.46323C4.73106 1.62398 4.51304 1.71429 4.28571 1.71429H2.92629L4.89171 3.67971C4.97358 3.75878 5.03888 3.85336 5.0838 3.95794C5.12872 4.06251 5.15237 4.17499 5.15336 4.2888C5.15435 4.40261 5.13266 4.51548 5.08956 4.62082C5.04646 4.72616 4.98282 4.82186 4.90234 4.90234C4.82186 4.98282 4.72616 5.04646 4.62082 5.08956C4.51548 5.13266 4.40261 5.15435 4.2888 5.15336C4.17499 5.15237 4.06251 5.12872 3.95794 5.0838C3.85336 5.03888 3.75878 4.97358 3.67971 4.89171L1.71429 2.92629V4.28571C1.71429 4.51304 1.62398 4.73106 1.46323 4.89181C1.30249 5.05255 1.08447 5.14286 0.857143 5.14286C0.629814 5.14286 0.411797 5.05255 0.251051 4.89181C0.0903058 4.73106 0 4.51304 0 4.28571V0.857143ZM7.71429 1.71429C7.48696 1.71429 7.26894 1.62398 7.10819 1.46323C6.94745 1.30249 6.85714 1.08447 6.85714 0.857143C6.85714 0.629814 6.94745 0.411797 7.10819 0.251051C7.26894 0.0903058 7.48696 0 7.71429 0H11.1429C11.3702 0 11.5882 0.0903058 11.7489 0.251051C11.9097 0.411797 12 0.629814 12 0.857143V4.28571C12 4.51304 11.9097 4.73106 11.7489 4.89181C11.5882 5.05255 11.3702 5.14286 11.1429 5.14286C10.9155 5.14286 10.6975 5.05255 10.5368 4.89181C10.376 4.73106 10.2857 4.51304 10.2857 4.28571V2.92629L8.32029 4.89171C8.24122 4.97358 8.14664 5.03888 8.04206 5.0838C7.93749 5.12872 7.82501 5.15237 7.7112 5.15336C7.59739 5.15435 7.48452 5.13266 7.37918 5.08956C7.27384 5.04646 7.17814 4.98282 7.09766 4.90234C7.01718 4.82186 6.95354 4.72616 6.91044 4.62082C6.86734 4.51548 6.84565 4.40261 6.84664 4.2888C6.84763 4.17499 6.87128 4.06251 6.9162 3.95794C6.96112 3.85336 7.02642 3.75878 7.10829 3.67971L9.07372 1.71429H7.71429ZM0 7.71429C0 7.48696 0.0903058 7.26894 0.251051 7.10819C0.411797 6.94745 0.629814 6.85714 0.857143 6.85714C1.08447 6.85714 1.30249 6.94745 1.46323 7.10819C1.62398 7.26894 1.71429 7.48696 1.71429 7.71429V9.07372L3.67971 7.10829C3.75878 7.02642 3.85336 6.96112 3.95794 6.9162C4.06251 6.87128 4.17499 6.84763 4.2888 6.84664C4.40261 6.84565 4.51548 6.86734 4.62082 6.91044C4.72616 6.95354 4.82186 7.01718 4.90234 7.09766C4.98282 7.17814 5.04646 7.27384 5.08956 7.37918C5.13266 7.48452 5.15435 7.59739 5.15336 7.7112C5.15237 7.82501 5.12872 7.93749 5.0838 8.04206C5.03888 8.14664 4.97358 8.24122 4.89171 8.32029L2.92629 10.2857H4.28571C4.51304 10.2857 4.73106 10.376 4.89181 10.5368C5.05255 10.6975 5.14286 10.9155 5.14286 11.1429C5.14286 11.3702 5.05255 11.5882 4.89181 11.7489C4.73106 11.9097 4.51304 12 4.28571 12H0.857143C0.629814 12 0.411797 11.9097 0.251051 11.7489C0.0903058 11.5882 0 11.3702 0 11.1429V7.71429ZM11.1429 6.85714C11.3702 6.85714 11.5882 6.94745 11.7489 7.10819C11.9097 7.26894 12 7.48696 12 7.71429V11.1429C12 11.3702 11.9097 11.5882 11.7489 11.7489C11.5882 11.9097 11.3702 12 11.1429 12H7.71429C7.48696 12 7.26894 11.9097 7.10819 11.7489C6.94745 11.5882 6.85714 11.3702 6.85714 11.1429C6.85714 10.9155 6.94745 10.6975 7.10819 10.5368C7.26894 10.376 7.48696 10.2857 7.71429 10.2857H9.07372L7.10829 8.32029C7.02642 8.24122 6.96112 8.14664 6.9162 8.04206C6.87128 7.93749 6.84763 7.82501 6.84664 7.7112C6.84565 7.59739 6.86734 7.48452 6.91044 7.37918C6.95354 7.27384 7.01718 7.17814 7.09766 7.09766C7.17814 7.01718 7.27384 6.95354 7.37918 6.91044C7.48452 6.86734 7.59739 6.84565 7.7112 6.84664C7.82501 6.84763 7.93749 6.87128 8.04206 6.9162C8.14664 6.96112 8.24122 7.02642 8.32029 7.10829L10.2857 9.07372V7.71429C10.2857 7.48696 10.376 7.26894 10.5368 7.10819C10.6975 6.94745 10.9155 6.85714 11.1429 6.85714Z" fill="white"/>
</svg>
