<svg width="55" height="55" viewBox="0 0 55 55" fill="none" xmlns="http://www.w3.org/2000/svg">
<path d="M17.0885 14.4857V4.07422M37.9115 14.4857V4.07422M14.4856 24.8973H40.5144M9.27983 50.9261H45.7202C47.1008 50.9261 48.4249 50.3776 49.4012 49.4013C50.3775 48.4251 50.9259 47.101 50.9259 45.7203V14.4857C50.9259 13.1051 50.3775 11.781 49.4012 10.8047C48.4249 9.82844 47.1008 9.27998 45.7202 9.27998H9.27983C7.89917 9.27998 6.57507 9.82844 5.5988 10.8047C4.62253 11.781 4.07407 13.1051 4.07407 14.4857V45.7203C4.07407 47.101 4.62253 48.4251 5.5988 49.4013C6.57507 50.3776 7.89917 50.9261 9.27983 50.9261Z" stroke="#BB3E03" stroke-width="8" stroke-linecap="round" stroke-linejoin="round"/>
</svg>
