<svg width="96" height="96" viewBox="0 0 96 96" fill="none" xmlns="http://www.w3.org/2000/svg">
<path fill-rule="evenodd" clip-rule="evenodd" d="M48 96C60.7304 96 72.9394 90.9429 81.9411 81.9411C90.9429 72.9394 96 60.7304 96 48C96 35.2696 90.9429 23.0606 81.9411 14.0589C72.9394 5.05713 60.7304 0 48 0C35.2696 0 23.0606 5.05713 14.0589 14.0589C5.05713 23.0606 0 35.2696 0 48C0 60.7304 5.05713 72.9394 14.0589 81.9411C23.0606 90.9429 35.2696 96 48 96ZM45.33 31.008C44.4264 30.4051 43.3761 30.0589 42.2911 30.0062C41.2061 29.9535 40.1272 30.1963 39.1694 30.7088C38.2116 31.2212 37.4109 31.9841 36.8528 32.9159C36.2946 33.8478 35.9998 34.9137 36 36V60C35.9998 61.0863 36.2946 62.1522 36.8528 63.0841C37.4109 64.0159 38.2116 64.7788 39.1694 65.2912C40.1272 65.8037 41.2061 66.0465 42.2911 65.9938C43.3761 65.9411 44.4264 65.5949 45.33 64.992L63.33 52.992C64.1517 52.4441 64.8255 51.7017 65.2915 50.8309C65.7575 49.9601 66.0013 48.9877 66.0013 48C66.0013 47.0123 65.7575 46.0399 65.2915 45.1691C64.8255 44.2983 64.1517 43.5559 63.33 43.008L45.33 31.008Z" fill="white"/>
</svg>
