<svg width="14" height="14" viewBox="0 0 14 14" fill="none" xmlns="http://www.w3.org/2000/svg">
<path fill-rule="evenodd" clip-rule="evenodd" d="M7 13C7.31826 13 7.62348 12.8736 7.84853 12.6485C8.07357 12.4235 8.2 12.1183 8.2 11.8V8.2H11.8C12.1183 8.2 12.4235 8.07357 12.6485 7.84853C12.8736 7.62348 13 7.31826 13 7C13 6.68174 12.8736 6.37652 12.6485 6.15147C12.4235 5.92643 12.1183 5.8 11.8 5.8H8.2V2.2C8.2 1.88174 8.07357 1.57652 7.84853 1.35147C7.62348 1.12643 7.31826 1 7 1C6.68174 1 6.37652 1.12643 6.15147 1.35147C5.92643 1.57652 5.8 1.88174 5.8 2.2V5.8H2.2C1.88174 5.8 1.57652 5.92643 1.35147 6.15147C1.12643 6.37652 1 6.68174 1 7C1 7.31826 1.12643 7.62348 1.35147 7.84853C1.57652 8.07357 1.88174 8.2 2.2 8.2H5.8V11.8C5.8 12.1183 5.92643 12.4235 6.15147 12.6485C6.37652 12.8736 6.68174 13 7 13Z" fill="white" stroke="white"/>
</svg>
