<svg width="22" height="16" viewBox="0 0 22 16" fill="none" xmlns="http://www.w3.org/2000/svg">
<path d="M14 8C14 8.79565 13.6839 9.55871 13.1213 10.1213C12.5587 10.6839 11.7956 11 11 11C10.2044 11 9.44129 10.6839 8.87868 10.1213C8.31607 9.55871 8 8.79565 8 8C8 7.20435 8.31607 6.44129 8.87868 5.87868C9.44129 5.31607 10.2044 5 11 5C11.7956 5 12.5587 5.31607 13.1213 5.87868C13.6839 6.44129 14 7.20435 14 8V8Z" stroke="black" stroke-width="2" stroke-linecap="round" stroke-linejoin="round"/>
<path d="M1.45801 8C2.73201 3.943 6.52301 1 11 1C15.478 1 19.268 3.943 20.542 8C19.268 12.057 15.478 15 11 15C6.52301 15 2.73201 12.057 1.45801 8V8Z" stroke="#001219" stroke-width="2" stroke-linecap="round" stroke-linejoin="round"/>
</svg>
