<svg width="18" height="16" viewBox="0 0 18 16" fill="none" xmlns="http://www.w3.org/2000/svg">
<path d="M1.12586 0C0.827267 0 0.540899 0.12041 0.329758 0.33474C0.118617 0.549071 0 0.839765 0 1.14287C0 1.44598 0.118617 1.73668 0.329758 1.95101C0.540899 2.16534 0.827267 2.28575 1.12586 2.28575H13.5104C13.809 2.28575 14.0953 2.16534 14.3065 1.95101C14.5176 1.73668 14.6362 1.44598 14.6362 1.14287C14.6362 0.839765 14.5176 0.549071 14.3065 0.33474C14.0953 0.12041 13.809 0 13.5104 0H1.12586ZM1.12586 4.5715C0.827267 4.5715 0.540899 4.69191 0.329758 4.90624C0.118617 5.12057 0 5.41126 0 5.71437C0 6.01748 0.118617 6.30818 0.329758 6.52251C0.540899 6.73684 0.827267 6.85725 1.12586 6.85725H9.00692C9.30552 6.85725 9.59188 6.73684 9.80302 6.52251C10.0142 6.30818 10.1328 6.01748 10.1328 5.71437C10.1328 5.41126 10.0142 5.12057 9.80302 4.90624C9.59188 4.69191 9.30552 4.5715 9.00692 4.5715H1.12586ZM1.12586 9.143C0.827267 9.143 0.540899 9.26341 0.329758 9.47774C0.118617 9.69207 0 9.98276 0 10.2859C0 10.589 0.118617 10.8797 0.329758 11.094C0.540899 11.3083 0.827267 11.4287 1.12586 11.4287H5.62932C5.92792 11.4287 6.21429 11.3083 6.42543 11.094C6.63657 10.8797 6.75519 10.589 6.75519 10.2859C6.75519 9.98276 6.63657 9.69207 6.42543 9.47774C6.21429 9.26341 5.92792 9.143 5.62932 9.143H1.12586ZM14.6362 5.71437C14.6362 5.41126 14.5176 5.12057 14.3065 4.90624C14.0953 4.69191 13.809 4.5715 13.5104 4.5715C13.2118 4.5715 12.9254 4.69191 12.7143 4.90624C12.5031 5.12057 12.3845 5.41126 12.3845 5.71437V12.0985L10.9288 10.6207C10.7164 10.4125 10.432 10.2974 10.1368 10.3C9.84164 10.3026 9.55925 10.4228 9.35051 10.6347C9.14177 10.8466 9.02336 11.1332 9.02079 11.4329C9.01823 11.7325 9.13171 12.0212 9.3368 12.2368L12.7144 15.6654C12.9255 15.8796 13.2118 16 13.5104 16C13.8089 16 14.0952 15.8796 14.3064 15.6654L17.684 12.2368C17.889 12.0212 18.0025 11.7325 18 11.4329C17.9974 11.1332 17.879 10.8466 17.6702 10.6347C17.4615 10.4228 17.1791 10.3026 16.8839 10.3C16.5887 10.2974 16.3043 10.4125 16.092 10.6207L14.6362 12.0985V5.71437Z" fill="white"/>
</svg>
