<svg width="1512" height="632" viewBox="0 0 1512 632" fill="none" xmlns="http://www.w3.org/2000/svg">
<rect width="1512" height="2" fill="#F7F7F8"/>
<rect y="18" width="1512" height="2" fill="#F7F7F8"/>
<rect y="36" width="1512" height="2" fill="#F7F7F8"/>
<rect y="54" width="1512" height="2" fill="#F7F7F8"/>
<rect y="72" width="1512" height="2" fill="#F7F7F8"/>
<rect y="90" width="1512" height="2" fill="#F7F7F8"/>
<rect y="108" width="1512" height="2" fill="#F7F7F8"/>
<rect y="126" width="1512" height="2" fill="#F7F7F8"/>
<rect y="144" width="1512" height="2" fill="#F7F7F8"/>
<rect y="162" width="1512" height="2" fill="#F7F7F8"/>
<rect y="180" width="1512" height="2" fill="#F7F7F8"/>
<rect y="198" width="1512" height="2" fill="#F7F7F8"/>
<rect y="216" width="1512" height="2" fill="#F7F7F8"/>
<rect y="234" width="1512" height="2" fill="#F7F7F8"/>
<rect y="252" width="1512" height="2" fill="#F7F7F8"/>
<rect y="270" width="1512" height="2" fill="#F7F7F8"/>
<rect y="288" width="1512" height="2" fill="#F7F7F8"/>
<rect y="306" width="1512" height="2" fill="#F7F7F8"/>
<rect y="324" width="1512" height="2" fill="#F7F7F8"/>
<rect y="342" width="1512" height="2" fill="#F7F7F8"/>
<rect y="360" width="1512" height="2" fill="#F7F7F8"/>
<rect y="378" width="1512" height="2" fill="#F7F7F8"/>
<rect y="396" width="1512" height="2" fill="#F7F7F8"/>
<rect y="414" width="1512" height="2" fill="#F7F7F8"/>
<rect y="432" width="1512" height="2" fill="#F7F7F8"/>
<rect y="450" width="1512" height="2" fill="#F7F7F8"/>
<rect y="468" width="1512" height="2" fill="#F7F7F8"/>
<rect y="486" width="1512" height="2" fill="#F7F7F8"/>
<rect y="504" width="1512" height="2" fill="#F7F7F8"/>
<rect y="522" width="1512" height="2" fill="#F7F7F8"/>
<rect y="540" width="1512" height="2" fill="#F7F7F8"/>
<rect y="558" width="1512" height="2" fill="#F7F7F8"/>
<rect y="576" width="1512" height="2" fill="#F7F7F8"/>
<rect y="594" width="1512" height="2" fill="#F7F7F8"/>
<rect y="612" width="1512" height="2" fill="#F7F7F8"/>
<rect y="630" width="1512" height="2" fill="#F7F7F8"/>
</svg>
