<svg width="22" height="20" viewBox="0 0 22 20" fill="none" xmlns="http://www.w3.org/2000/svg">
<path d="M12.875 16.825C12.2568 16.9419 11.6291 17.0005 11 17C6.52197 17 2.73197 14.057 1.45697 10C1.80024 8.9081 2.32896 7.88346 3.01997 6.971M8.87797 7.879C9.44063 7.31634 10.2038 7.00025 10.9995 7.00025C11.7952 7.00025 12.5583 7.31634 13.121 7.879C13.6836 8.44166 13.9997 9.20478 13.9997 10.0005C13.9997 10.7962 13.6836 11.5593 13.121 12.122M8.87797 7.879L13.121 12.122M8.87797 7.879L13.12 12.12M13.121 12.122L16.412 15.412M8.87997 7.88L5.58997 4.59M5.58997 4.59L1.99997 1M5.58997 4.59C7.20233 3.54957 9.08107 2.9974 11 3C15.478 3 19.268 5.943 20.543 10C19.839 12.2305 18.3773 14.1446 16.411 15.411M5.58997 4.59L16.411 15.411M16.411 15.411L20 19" stroke="black" stroke-width="2" stroke-linecap="round" stroke-linejoin="round"/>
</svg>
