<svg width="18" height="14" viewBox="0 0 18 14" fill="none" xmlns="http://www.w3.org/2000/svg">
<path d="M8.99968 8.88656C9.49998 8.88656 9.97979 8.68782 10.3336 8.33405C10.6873 7.98028 10.8861 7.50047 10.8861 7.00016C10.8861 6.49986 10.6873 6.02005 10.3336 5.66628C9.97979 5.31251 9.49998 5.11377 8.99968 5.11377C8.49937 5.11377 8.01956 5.31251 7.66579 5.66628C7.31203 6.02005 7.11328 6.49986 7.11328 7.00016C7.11328 7.50047 7.31203 7.98028 7.66579 8.33405C8.01956 8.68782 8.49937 8.88656 8.99968 8.88656Z" fill="white"/>
<path fill-rule="evenodd" clip-rule="evenodd" d="M0 7.00009C1.20163 3.17354 4.77635 0.397705 8.99999 0.397705C13.2236 0.397705 16.7984 3.17354 18 7.00009C16.7984 10.8266 13.2236 13.6025 8.99999 13.6025C4.77635 13.6025 1.20163 10.8266 0 7.00009ZM12.7728 7.00009C12.7728 8.0007 12.3753 8.96032 11.6678 9.66786C10.9602 10.3754 10.0006 10.7729 8.99999 10.7729C7.99939 10.7729 7.03976 10.3754 6.33223 9.66786C5.62469 8.96032 5.2272 8.0007 5.2272 7.00009C5.2272 5.99948 5.62469 5.03986 6.33223 4.33232C7.03976 3.62479 7.99939 3.2273 8.99999 3.2273C10.0006 3.2273 10.9602 3.62479 11.6678 4.33232C12.3753 5.03986 12.7728 5.99948 12.7728 7.00009Z" fill="white"/>
</svg>
