<svg width="7" height="13" viewBox="0 0 7 13" fill="none" xmlns="http://www.w3.org/2000/svg">
<path fill-rule="evenodd" clip-rule="evenodd" d="M0.341609 12.101C0.122877 11.8775 0 11.5745 0 11.2586C0 10.9426 0.122877 10.6396 0.341609 10.4162L4.18372 6.49261L0.341609 2.56904C0.129076 2.34432 0.0114735 2.04335 0.0141318 1.73094C0.0167902 1.41854 0.139496 1.1197 0.355821 0.898784C0.572146 0.677872 0.864782 0.552564 1.1707 0.54985C1.47662 0.547135 1.77134 0.667231 1.99139 0.88427L6.65839 5.65023C6.87712 5.87367 7 6.17667 7 6.49261C7 6.80855 6.87712 7.11156 6.65839 7.33499L1.99139 12.101C1.77259 12.3243 1.47588 12.4498 1.1665 12.4498C0.85712 12.4498 0.560407 12.3243 0.341609 12.101Z" fill="white"/>
</svg>
